# xmcd
#
# Track frame offsets:
#       150
#       15275
#       33555
#       48452
#       67705
#       82660
#       96312
#       116480
#       133035
#       151800
#
# Disc length: 2319 seconds
#
# Revision: 0
# Processed by: cddbd v1.5.1PL0 Copyright (c) Steve Scherf et al.
# Submitted via: CD-DA_X-Tractor v0.24
#
DISCID=6c090d0a
DTITLE=Craig Dillingham - Almost Yesterday
DYEAR=2004
DGENRE=
TTITLE0=She'll Be Breaking Someone's Heart In San Antonio
TTITLE1=Just One More
TTITLE2=My Heart Is In The Highway
TTITLE3=Thirty Years And A Thousand Miles Away
TTITLE4=Magic In The Band
TTITLE5=Not Exactly What I Had In Mind
TTITLE6=I Wonder Who's Missing You Now
TTITLE7=Call Me Sometime When You've Been Drinking
TTITLE8=Somewhere Between My Heart And Guitar Strings
TTITLE9=Second Time Sun
EXTD=
EXTT0=
EXTT1=
EXTT2=
EXTT3=
EXTT4=
EXTT5=
EXTT6=
EXTT7=
EXTT8=
EXTT9=
PLAYORDER=
